<svg width="24" height="24" viewBox="0 0 24 24" fill="none" xmlns="http://www.w3.org/2000/svg">
<path d="M3 21V17C3 15.8954 3.89543 15 5 15H12M19.5 19.5L21 21M16 7C16 9.20914 14.2091 11 12 11C9.79086 11 8 9.20914 8 7C8 4.79086 9.79086 3 12 3C14.2091 3 16 4.79086 16 7ZM20.25 17.625C20.25 19.0747 19.0747 20.25 17.625 20.25C16.1753 20.25 15 19.0747 15 17.625C15 16.1753 16.1753 15 17.625 15C19.0747 15 20.25 16.1753 20.25 17.625Z" stroke="black" stroke-width="2" stroke-linecap="round" stroke-linejoin="round"/>
</svg>
