<svg width="24" height="24" viewBox="0 0 24 24" fill="none" xmlns="http://www.w3.org/2000/svg">
<path d="M3 7.1173C3 7.1173 5 8.01764 7.5 7.49992C9.95155 6.99223 11.1025 5.81636 14.5 4.48194C17 3.50001 21 4.99984 21 4.99984M3 12.9689C3 12.9689 5 13.8692 7.5 13.3515C9.95155 12.8438 11.1025 11.6679 14.5 10.3335C17 9.35158 21 10.8514 21 10.8514M3 18.9689C3 18.9689 5 19.8692 7.5 19.3515C9.95155 18.8438 11.1025 17.6679 14.5 16.3335C17 15.3516 21 16.8514 21 16.8514" stroke="black" stroke-width="2" stroke-linecap="round" stroke-linejoin="round"/>
</svg>
