<svg width="24" height="24" viewBox="0 0 24 24" fill="none" xmlns="http://www.w3.org/2000/svg">
<path d="M14 10H17.6453C19.153 10 20.5989 10.5989 21.665 11.665C21.85 11.85 21.85 12.15 21.665 12.335C20.5989 13.4011 19.153 14 17.6453 14H14L10.6311 21.7004C10.5514 21.8824 10.3716 22 10.173 22H9L10 14H6L4.29687 16.5547C4.1114 16.8329 3.79917 17 3.46482 17H2L4 12L2 7H3.46482C3.79917 7 4.1114 7.1671 4.29687 7.4453L6 10H10L9 2L10.173 2C10.3716 2 10.5514 2.1176 10.6311 2.29959L14 10Z" stroke="black" stroke-width="2" stroke-linecap="round" stroke-linejoin="round"/>
</svg>
