<svg width="24" height="24" viewBox="0 0 24 24" fill="none" xmlns="http://www.w3.org/2000/svg">
<path d="M12.0001 6V9.28792M12.0001 9.28792V16M12.0001 9.28792C12.3347 9.28792 12.6694 9.37182 12.9714 9.53961L16.5 11.5M12.0001 9.28792C11.6655 9.28791 11.3308 9.37181 11.0288 9.53959L7.5 11.5M12.0001 16L9.5 17.5M12.0001 16L14.5 17.5M22 12C22 17.5228 17.5228 22 12 22C6.47715 22 2 17.5228 2 12C2 6.47715 6.47715 2 12 2C17.5228 2 22 6.47715 22 12Z" stroke="black" stroke-width="2" stroke-linecap="round" stroke-linejoin="round"/>
</svg>
