<svg width="24" height="24" viewBox="0 0 24 24" fill="none" xmlns="http://www.w3.org/2000/svg">
<path d="M8.99999 2C9.72901 2.1458 11.4785 3.03142 11.905 5.39332M14.905 2C14.6784 2.04531 14.3533 2.16208 14 2.3724M2.96212 6.73103C1.16187 10.5834 0.622433 18.1484 6.21716 21.5987C7.28784 22.259 8.63664 22.1249 9.72039 21.4863L9.77021 21.457C10.9987 20.7331 12.5232 20.7331 13.7517 21.457C14.8603 22.1103 16.2466 22.2132 17.3207 21.5046C22.9072 17.8191 22.6556 10.5033 21.0077 6.74884C20.1288 4.74658 17.7883 4.34629 15.6858 4.94701C13.2768 5.63529 10.7232 5.63529 8.31421 4.94701C6.21169 4.34629 3.88786 4.75002 2.96212 6.73103Z" stroke="black" stroke-width="2" stroke-linecap="round" stroke-linejoin="round"/>
</svg>
