<svg width="24" height="24" viewBox="0 0 24 24" fill="none" xmlns="http://www.w3.org/2000/svg">
<path d="M22 12C22 17.5228 17.5228 22 12 22M22 12C22 6.47715 17.5228 2 12 2M22 12H2M12 22C6.47715 22 2 17.5228 2 12M12 22V2M2 12C2 6.47715 6.47715 2 12 2M5 4.85857C6.85136 6.67349 8 9.20261 8 12C8 14.7974 6.85136 17.3265 5 19.1414M19 4.8584C17.1486 6.67332 16 9.20244 16 11.9998C16 14.7972 17.1486 17.3263 19 19.1413" stroke="black" stroke-width="2" stroke-linecap="round" stroke-linejoin="round"/>
</svg>
