<svg width="24" height="24" viewBox="0 0 24 24" fill="none" xmlns="http://www.w3.org/2000/svg">
<path d="M6 9V15M21 10V14M5.415 18H15.585C16.4392 18 16.8664 18 17.1915 17.8311C17.4654 17.6888 17.6888 17.4654 17.8311 17.1915C18 16.8664 18 16.4392 18 15.585V8.415C18 7.56076 18 7.13365 17.8311 6.80854C17.6888 6.53457 17.4654 6.31119 17.1915 6.16888C16.8664 6 16.4392 6 15.585 6H5.415C4.56076 6 4.13365 6 3.80854 6.16888C3.53457 6.31119 3.31119 6.53457 3.16888 6.80854C3 7.13365 3 7.56076 3 8.415V15.585C3 16.4392 3 16.8664 3.16888 17.1915C3.31119 17.4654 3.53457 17.6888 3.80854 17.8311C4.13365 18 4.56076 18 5.415 18Z" stroke="black" stroke-width="2" stroke-linecap="round" stroke-linejoin="round"/>
</svg>
