<svg width="24" height="24" viewBox="0 0 24 24" fill="none" xmlns="http://www.w3.org/2000/svg">
<path d="M20.5 5.5H17L19.5 16.5M9 8H17.5L11 16M9 8L4.5 16.5M9 8L11 16M9 8L8 4M11 16H8M5.5 4H10.5M8 16.5C8 18.433 6.433 20 4.5 20C2.567 20 1 18.433 1 16.5C1 14.567 2.567 13 4.5 13C6.433 13 8 14.567 8 16.5ZM23 16.5C23 18.433 21.433 20 19.5 20C17.567 20 16 18.433 16 16.5C16 14.567 17.567 13 19.5 13C21.433 13 23 14.567 23 16.5Z" stroke="black" stroke-width="2" stroke-linecap="round" stroke-linejoin="round"/>
</svg>
