<svg width="24" height="24" viewBox="0 0 24 24" fill="none" xmlns="http://www.w3.org/2000/svg">
<path d="M10.3942 4.84716L16.1586 6.41023C18.1549 6.95155 19.3794 8.87766 18.8937 10.7123C18.4079 12.547 16.3957 13.5955 14.3994 13.0542M10.3942 4.84716L8.63499 11.4911M10.3942 4.84716L11.1481 1.99976M10.3942 4.84716L8.51836 4.33852M14.3994 13.0542L8.63499 11.4911M14.3994 13.0542C16.3957 13.5955 17.6203 15.5216 17.1345 17.3563C16.6487 19.191 14.6366 20.2394 12.6403 19.6981L6.87581 18.1351M8.63499 11.4911L6.87581 18.1351M6.87581 18.1351L6.12188 20.9825M6.87581 18.1351L5 17.6264M14.1458 5.86444L14.8997 3.01704M9.87351 21.9998L10.6274 19.1523" stroke="black" stroke-width="2" stroke-linecap="round" stroke-linejoin="round"/>
</svg>
