<svg width="24" height="24" viewBox="0 0 24 24" fill="none" xmlns="http://www.w3.org/2000/svg">
<path d="M16.6797 9.95158C16.7655 10.081 16.8654 10.2039 16.9794 10.318C17.8992 11.2377 19.3904 11.2377 20.3102 10.318C21.2299 9.39821 21.2299 7.90699 20.3102 6.98723C19.7654 6.44245 19.0201 6.22035 18.3119 6.32092C18.0595 6.35676 17.8118 6.43358 17.5796 6.55138C17.4997 6.59189 17.3766 6.65682 17.3008 6.70703C17.351 6.63124 17.4081 6.50033 17.4486 6.42045C17.5664 6.1882 17.6432 5.9405 17.6791 5.6881C17.7797 4.97985 17.5575 4.23459 17.0128 3.68982C16.093 2.77006 14.6018 2.77006 13.682 3.68982C12.7623 4.60958 12.7623 6.1008 13.682 7.02056C13.7961 7.13462 13.8086 7.14453 13.9818 7.32032L7.32032 13.9818C7.12891 13.7891 7.13462 13.7961 7.02056 13.682C6.1008 12.7623 4.60958 12.7623 3.68982 13.682C2.77006 14.6018 2.77006 16.093 3.68982 17.0128C4.23459 17.5575 4.97985 17.7797 5.6881 17.6791C5.9405 17.6432 6.1882 17.5664 6.42045 17.4486C6.50033 17.4081 6.61952 17.3471 6.69531 17.2969C6.6451 17.3727 6.59189 17.4997 6.55138 17.5796C6.43358 17.8118 6.35676 18.0595 6.32092 18.3119C6.22035 19.0201 6.44245 19.7654 6.98723 20.3102C7.90699 21.2299 9.39821 21.2299 10.318 20.3102C11.2377 19.3904 11.2377 17.8992 10.318 16.9794C10.2039 16.8654 10.1367 16.8008 9.98491 16.6464L16.6464 9.98491" stroke="black" stroke-width="2" stroke-linecap="round" stroke-linejoin="round"/>
</svg>
