<svg width="24" height="24" viewBox="0 0 24 24" fill="none" xmlns="http://www.w3.org/2000/svg">
<path d="M12 21C15.866 21 19 17.6421 19 13.5C19 9.35786 15.866 7 12 7C8.13401 7 5 9.35786 5 13.5C5 17.6421 8.13401 21 12 21ZM12 21V12M16 8V7.5C16 5.01472 14.2091 3 12 3C9.79086 3 8 5.01472 8 7.5V8M14 3.5L15 2M10 3.5L9 2M5.14003 15H2M22 15H18.86M18.7505 11.5824L20.2428 11.0029C21.0021 10.6992 21.5 9.96374 21.5 9.14593V8M5.24742 11.5898L3.75722 11.0029C2.9979 10.6992 2.5 9.96374 2.5 9.14593V8M17.7226 17.8203L20.2878 18.9805C21.0232 19.2957 21.5 20.0187 21.5 20.8188V22M6.26883 17.8073L3.71216 18.9805C2.97679 19.2957 2.5 20.0187 2.5 20.8188V22" stroke="black" stroke-width="2" stroke-linecap="round" stroke-linejoin="round"/>
</svg>
