<svg width="24" height="24" viewBox="0 0 24 24" fill="none" xmlns="http://www.w3.org/2000/svg">
<path d="M12 21.9999H22V11.2262C22 10.9539 21.889 10.6933 21.6925 10.5048L17.7068 6.67847C17.3141 6.30151 16.6921 6.30785 16.3072 6.69275L15 7.99993M15 21.9999H2V8.43776C2 8.15867 2.11664 7.89227 2.32172 7.70296L7.82172 2.62604C8.20478 2.27244 8.79522 2.27244 9.17828 2.62604L14.6783 7.70296C14.8834 7.89227 15 8.15867 15 8.43776V21.9999ZM18 12.9999H19V13.9999H18V12.9999ZM18 16.9999H19V17.9999H18V16.9999ZM10 8.99993H11V9.99993H10V8.99993ZM6 12.9999H7V13.9999H6V12.9999ZM6 8.99993H7V9.99993H6V8.99993ZM10 12.9999H11V13.9999H10V12.9999ZM6 16.9999H7V17.9999H6V16.9999ZM10 16.9999H11V17.9999H10V16.9999Z" stroke="black" stroke-width="2" stroke-linecap="round" stroke-linejoin="round"/>
</svg>
