<svg width="24" height="24" viewBox="0 0 24 24" fill="none" xmlns="http://www.w3.org/2000/svg">
<path d="M3 22.0001H21M19 22.0001H5.00001V8.46C5.00001 8.16807 5.12757 7.89072 5.34921 7.70074L11.3492 2.55788C11.7237 2.23689 12.2763 2.23689 12.6508 2.55788L18.6508 7.70074C18.8724 7.89072 19 8.16807 19 8.46V22.0001ZM9 9.00007H10V10.0001H9V9.00007ZM9 13.0001H10V14.0001H9V13.0001ZM9 17.0001H10V18.0001H9V17.0001ZM14 9.00007H15V10.0001H14V9.00007ZM14 13.0001H15V14.0001H14V13.0001ZM14 17.0001H15V18.0001H14V17.0001Z" stroke="black" stroke-width="2" stroke-linecap="round" stroke-linejoin="round"/>
</svg>
