<svg width="24" height="24" viewBox="0 0 24 24" fill="none" xmlns="http://www.w3.org/2000/svg">
<path d="M5 20.0001H19M5 20.0001C3.89543 20.0001 3 19.1046 3 18.0001V7.07112C3 5.74504 3.52679 4.47327 4.46447 3.53558L4.53545 3.4646C5.47318 2.52687 6.74452 2.00008 8.07067 2.00012L15.9293 2.00012C17.2555 2.00008 18.5268 2.52687 19.4646 3.4646L19.5355 3.53558C20.4732 4.47327 21 5.74504 21 7.07112V18.0001C21 19.1046 20.1046 20.0001 19 20.0001M5 20.0001V22.0001M19 20.0001V22.0001M21 13.0001H3M20.884 6.00005H3.11605M18 16.5001H17.99M6 16.5001H5.99M1 10.0001V8.00005H3M23 10.0001V8.00005H21" stroke="black" stroke-width="2" stroke-linecap="round" stroke-linejoin="round"/>
</svg>
