<svg width="24" height="24" viewBox="0 0 24 24" fill="none" xmlns="http://www.w3.org/2000/svg">
<path d="M16 2V6M8 2V6M5 22H19C20.1046 22 21 21.1046 21 20V6C21 4.89543 20.1046 4 19 4H5C3.89543 4 3 4.89543 3 6V20C3 21.1046 3.89543 22 5 22ZM8 18H16C16 18 15.25 15 12 15C8.75 15 8 18 8 18ZM14 10.5C14 11.6046 13.1046 12.5 12 12.5C10.8954 12.5 10 11.6046 10 10.5C10 9.39545 10.8954 8.50002 12 8.50002C13.1046 8.50002 14 9.39545 14 10.5Z" stroke="black" stroke-width="2" stroke-linecap="round" stroke-linejoin="round"/>
</svg>
