<svg width="24" height="24" viewBox="0 0 24 24" fill="none" xmlns="http://www.w3.org/2000/svg">
<path d="M4 21H20C21.1046 21 22 20.1046 22 19V8.6C22 7.49543 21.1046 6.6 20 6.6L17 6.6L14.7983 3.4296C14.6115 3.16049 14.3046 3 13.977 3H10.023C9.6954 3 9.38855 3.16049 9.20166 3.4296L7 6.6L4 6.6C2.89543 6.6 2 7.49543 2 8.6V19C2 20.1046 2.89543 21 4 21Z" stroke="black" stroke-width="2" stroke-linecap="round" stroke-linejoin="round"/>
<path d="M16 13C16 15.2091 14.2091 17 12 17C9.79086 17 8 15.2091 8 13C8 10.7909 9.79086 9 12 9C14.2091 9 16 10.7909 16 13Z" stroke="black" stroke-width="2" stroke-linecap="round" stroke-linejoin="round"/>
</svg>
