<svg width="24" height="24" viewBox="0 0 24 24" fill="none" xmlns="http://www.w3.org/2000/svg">
<path d="M5 18.5V21H8V18.5M16 18.4998V21H19V18.5M20 9.49996H22M4 9.49996H2M18 14.5H17.99M6.00001 14.5H5.99001M13 14.5H11M4 9.99996L6 3.49996L6.68509 3.44287C10.2222 3.14811 13.7778 3.14811 17.3149 3.44287L18 3.49996L20 9.99996M3.81224 10.4999C3.33774 10.4999 2.93129 10.8332 2.84331 11.2995C2.71654 11.9714 2.55101 12.9134 2.5 13.5C2.3947 14.7109 2.67047 16.6198 2.85315 17.6948C2.9329 18.1641 3.33967 18.4999 3.81574 18.4999H20.1843C20.6604 18.4999 21.0671 18.1641 21.1469 17.6948C21.3295 16.6198 21.6053 14.7109 21.5 13.5C21.449 12.9134 21.2835 11.9714 21.1567 11.2995C21.0687 10.8332 20.6623 10.4999 20.1878 10.4999H3.81224Z" stroke="black" stroke-width="2" stroke-linecap="round" stroke-linejoin="round"/>
</svg>
