<svg width="24" height="24" viewBox="0 0 24 24" fill="none" xmlns="http://www.w3.org/2000/svg">
<path d="M21 18H17M21.0002 20.9999L17.0002 19.9998M14 6.99995L18.1464 2.8535C18.4614 2.53852 19 2.76161 19 3.20706V15C19 9.4771 16.9704 6.99995 11.9999 6.99995C7.02931 6.99995 5 9.4771 5 15V3.20706C5 2.76161 5.53857 2.53852 5.85355 2.8535L10 6.99995M7 18H3M7 20L3 21M10 12.0161L10.0161 12M14 12.04L14.0161 12M12 18L14 16H10L12 18ZM12 18V19M12 19C12 20.1045 11.1046 21 10 21M12 19C12 20.1045 12.8954 21 14 21" stroke="black" stroke-width="2" stroke-linecap="round" stroke-linejoin="round"/>
</svg>
