<svg width="24" height="24" viewBox="0 0 24 24" fill="none" xmlns="http://www.w3.org/2000/svg">
<path d="M14 2.20004C13.3538 2.06886 12.6849 2 12 2C11.3151 2 10.6462 2.06886 10 2.20004M2.20004 10C2.06886 10.6462 2 11.3151 2 12C2 12.6849 2.06886 13.3538 2.20004 14M10 21.8C10.6462 21.9311 11.3151 22 12 22C12.6849 22 13.3538 21.9311 14 21.8M21.8 14C21.9311 13.3538 22 12.6849 22 12C22 11.3151 21.9311 10.6462 21.8 10M20.3438 6.48459C19.9796 5.93489 19.5554 5.41325 19.0711 4.92893C18.5867 4.44461 18.0651 4.02036 17.5154 3.65617M6.48459 3.65617C5.93489 4.02036 5.41325 4.44461 4.92893 4.92893C4.44461 5.41325 4.02036 5.93489 3.65617 6.48459M3.65616 17.5154C4.02036 18.0651 4.44461 18.5867 4.92893 19.0711C5.41325 19.5554 5.93489 19.9796 6.48459 20.3438M17.5154 20.3438C18.0651 19.9796 18.5867 19.5554 19.0711 19.0711C19.5554 18.5867 19.9796 18.0651 20.3438 17.5154" stroke="black" stroke-width="2" stroke-linecap="round" stroke-linejoin="round"/>
</svg>
