<svg width="24" height="24" viewBox="0 0 24 24" fill="none" xmlns="http://www.w3.org/2000/svg">
<path d="M12 2C12.3375 2 12.6711 2.01672 13 2.04938M12 2C11.6625 2 11.3289 2.01672 11 2.04938M12 2C17.5228 2 22 6.47715 22 12M2.04938 11C2.01672 11.3289 2 11.6625 2 12C2 12.3375 2.01672 12.6711 2.04938 13M12 22C11.6625 22 11.3289 21.9833 11 21.9506M12 22C12.3375 22 12.6711 21.9833 13 21.9506M12 22C17.5228 22 22 17.5228 22 12M22 12C22 12.3375 21.9833 12.6711 21.9506 13M22 12C22 11.6625 21.9833 11.3289 21.9506 11M17.8413 3.88251C17.5728 3.68977 17.2923 3.5085 17 3.33975C16.7077 3.171 16.4105 3.01868 16.1093 2.88251M3.88251 6.15866C3.68977 6.42717 3.5085 6.70772 3.33975 7C3.171 7.29228 3.01868 7.58954 2.88251 7.89071M6.15866 20.1175C6.42718 20.3102 6.70772 20.4915 7 20.6603C7.29228 20.829 7.58954 20.9813 7.89071 21.1175M20.1175 17.8413C20.3102 17.5728 20.4915 17.2923 20.6603 17C20.829 16.7077 20.9813 16.4105 21.1175 16.1093M21.1175 7.89081C20.9813 7.58964 20.829 7.29238 20.6603 7.0001C20.4915 6.70781 20.3102 6.42727 20.1175 6.15876M7.89072 2.8826C7.58955 3.01878 7.29229 3.17109 7.00001 3.33984C6.70772 3.50859 6.42718 3.68987 6.15867 3.8826M2.88251 16.1094C3.01868 16.4106 3.171 16.7078 3.33975 17.0001C3.5085 17.2924 3.68978 17.5729 3.88251 17.8414M16.1093 21.1176C16.4105 20.9814 16.7077 20.8291 17 20.6604C17.2923 20.4916 17.5728 20.3103 17.8413 20.1176M12 6V12L16 16" stroke="black" stroke-width="2" stroke-linecap="round" stroke-linejoin="round"/>
</svg>
