<svg width="24" height="24" viewBox="0 0 24 24" fill="none" xmlns="http://www.w3.org/2000/svg">
<path d="M13.8 11.1L15.206 8.99099C16.9132 6.43025 15.0776 3 12 3C8.92237 3 7.08683 6.43025 8.79399 8.99099L10.2 11.1L8.32828 10.1641C5.88028 8.94014 3 10.7203 3 13.4572C3 16.349 6.18085 18.112 8.63308 16.5793L10.2 15.6C10.2 15.6 10.75 19.2 8.5 21H15.5C13.25 18.75 13.8 15.6 13.8 15.6L15.3669 16.5793C17.8191 18.112 21 16.349 21 13.4572C21 10.7203 18.1197 8.94014 15.6717 10.1641L13.8 11.1Z" stroke="black" stroke-width="2" stroke-linecap="round" stroke-linejoin="round"/>
</svg>
