<svg width="24" height="24" viewBox="0 0 24 24" fill="none" xmlns="http://www.w3.org/2000/svg">
<path d="M8.7081 20.6787C11.022 22.9926 15.5775 22.1886 18.8831 18.8831C22.1887 15.5775 22.9926 11.022 20.6787 8.70806M8.7081 20.6787C6.39419 18.3647 7.1981 13.8092 10.5037 10.5037C13.8093 7.19806 18.3648 6.39415 20.6787 8.70806M8.7081 20.6787C8.7081 20.6787 9.30663 17.686 11.1022 15.8904C13.4963 13.4963 15.2919 15.2919 17.686 12.8978C19.4816 11.1022 20.6787 8.70806 20.6787 8.70806M3.32132 3.32132C3.32132 3.32132 5.71543 4.51837 7.51102 6.31396C7.86537 6.66831 8.12793 7.00954 8.32589 7.34155M3.32132 3.32132C5.54955 1.09308 9.85644 1.75606 13.1242 4.76003M3.32132 3.32132C1.11648 5.52615 1.74245 9.76623 4.66618 13.0209" stroke="black" stroke-width="2" stroke-linecap="round" stroke-linejoin="round"/>
</svg>
