<svg width="24" height="24" viewBox="0 0 24 24" fill="none" xmlns="http://www.w3.org/2000/svg">
<path d="M20 5C20 6.65685 15.9706 8 11 8C6.02944 8 2 6.65685 2 5M20 5C20 3.34315 15.9706 2 11 2C6.02944 2 2 3.34315 2 5M20 5V10.5M2 5V17C2 18.6009 5.76201 19.909 10.5 19.9954M10 11.9817C5.50005 11.8159 2 10.5442 2 9M9 15.9257C4.99202 15.6225 2 14.4277 2 13M22 15.5C22 19.0899 19.0899 22 15.5 22C11.9101 22 9 19.0899 9 15.5C9 11.9101 11.9101 9 15.5 9C19.0899 9 22 11.9101 22 15.5Z" stroke="black" stroke-width="2" stroke-linecap="round" stroke-linejoin="round"/>
</svg>
