<svg width="24" height="24" viewBox="0 0 24 24" fill="none" xmlns="http://www.w3.org/2000/svg">
<path d="M15 8.8H18.1C19.7016 8.8 21 7.50163 21 5.9C21 4.29837 19.7016 3 18.1 3H18C16.3431 3 15 4.34314 15 6V8.8ZM15 8.8V15.2M15 8.8H9M15 15.2H18.1C19.7016 15.2 21 16.4984 21 18.1C21 19.7016 19.7016 21 18.1 21H18C16.3431 21 15 19.6569 15 18V15.2ZM15 15.2H7.5M9 8.8H5.9C4.29837 8.8 3 7.50163 3 5.9C3 4.29837 4.29837 3 5.9 3H6C7.65685 3 9 4.34314 9 6V8.8ZM9 8.8V15.2M9 15.2H5.9C4.29837 15.2 3 16.4984 3 18.1C3 19.7016 4.29837 21 5.9 21H6C7.65685 21 9 19.6569 9 18V15.2Z" stroke="black" stroke-width="2" stroke-linecap="round" stroke-linejoin="round"/>
</svg>
