<svg width="24" height="24" viewBox="0 0 24 24" fill="none" xmlns="http://www.w3.org/2000/svg">
<path d="M22 12C22 17.5228 17.5228 22 12 22C6.47715 22 2 17.5228 2 12C2 6.47715 6.47715 2 12 2C17.5228 2 22 6.47715 22 12Z" stroke="black" stroke-width="2" stroke-linecap="round" stroke-linejoin="round"/>
<path d="M10.1159 9.79975L15.294 8.07372C15.6848 7.94342 16.0567 8.31529 15.9264 8.70617L14.2004 13.8843C14.1506 14.0336 14.0335 14.1507 13.8842 14.2005L8.70605 15.9265C8.31517 16.0568 7.9433 15.685 8.07359 15.2941L9.79963 10.116C9.84939 9.96668 9.96655 9.84952 10.1159 9.79975Z" stroke="black" stroke-width="2" stroke-linecap="round" stroke-linejoin="round"/>
</svg>
