<svg width="24" height="24" viewBox="0 0 24 24" fill="none" xmlns="http://www.w3.org/2000/svg">
<path d="M18 3.70801C19.2447 5.11827 20 6.97076 20 8.99966C20 11.0285 19.2447 12.881 18 14.2913M6 3.70801C4.75527 5.11827 4 6.97076 4 8.99966C4 11.0285 4.75527 12.881 6 14.2913M15 6.354C15.6224 7.05914 16 7.98538 16 8.99983C16 10.0143 15.6224 10.9405 15 11.6457M9 6.354C8.37764 7.05914 8 7.98538 8 8.99983C8 10.0143 8.37764 10.9405 9 11.6457M12 8.99976V20.4406" stroke="black" stroke-width="2" stroke-linecap="round" stroke-linejoin="round"/>
</svg>
