<svg width="24" height="24" viewBox="0 0 24 24" fill="none" xmlns="http://www.w3.org/2000/svg">
<path d="M8 8.01611L8.01611 8M8 16.0161L8.01611 16M15 16.0161L15.0161 16M11.9839 12.0161L12 12M16 3.01611L16.0161 3M21 3.01611L21.0161 3M12.126 2C12.0438 2.31962 12 2.6547 12 3C12 5.20914 13.7909 7 16 7C16.3453 7 16.6804 6.95625 17 6.87398M17.126 7C17.0438 7.31962 17 7.6547 17 8C17 10.2091 18.7909 12 21 12C21.3453 12 21.6804 11.9562 22 11.874M22 12C22 17.5228 17.5228 22 12 22C6.47715 22 2 17.5228 2 12C2 6.47715 6.47715 2 12 2" stroke="black" stroke-width="2" stroke-linecap="round" stroke-linejoin="round"/>
</svg>
