<svg width="24" height="24" viewBox="0 0 24 24" fill="none" xmlns="http://www.w3.org/2000/svg">
<path d="M20 10V7C20 6.17157 19.3284 5.5 18.5 5.5H13.5C12.6716 5.5 12 6.17157 12 7M12 7V13M12 7C12 6.17157 11.3284 5.5 10.5 5.5H5.5C4.67157 5.5 4 6.17157 4 7V10M4 17V18.5M20 17V18.5M18 13V11C18 10.4477 18.4477 10 19 10H21C21.5523 10 22 10.4477 22 11V16C22 16.5523 21.5523 17 21 17H3C2.44772 17 2 16.5523 2 16V11C2 10.4477 2.44772 10 3 10H5C5.55228 10 6 10.4477 6 11V13H18Z" stroke="#020202" stroke-width="2" stroke-linecap="round" stroke-linejoin="round"/>
</svg>
