<svg width="24" height="24" viewBox="0 0 24 24" fill="none" xmlns="http://www.w3.org/2000/svg">
<path d="M12 5V19M3 19H21C22.1046 19 23 18.1046 23 17V7C23 5.89543 22.1046 5 21 5H3C1.89543 5 1 5.89543 1 7V17C1 18.1046 1.89543 19 3 19ZM1 9H4C4.55228 9 5 9.44772 5 10V14C5 14.5523 4.55228 15 4 15H1V9ZM23 9H20C19.4477 9 19 9.44772 19 10V14C19 14.5523 19.4477 15 20 15H23V9ZM15 12C15 13.6569 13.6569 15 12 15C10.3431 15 9 13.6569 9 12C9 10.3431 10.3431 9 12 9C13.6569 9 15 10.3431 15 12Z" stroke="black" stroke-width="2" stroke-linecap="round" stroke-linejoin="round"/>
</svg>
