<svg width="24" height="24" viewBox="0 0 24 24" fill="none" xmlns="http://www.w3.org/2000/svg">
<path d="M2 2L22 22M6.71277 6.7226C3.66479 8.79527 2 12 2 12C2 12 5.63636 19 12 19C14.0503 19 15.8174 18.2734 17.2711 17.2884M11 5.05822C11.3254 5.02013 11.6588 5 12 5C18.3636 5 22 12 22 12C22 12 21.3082 13.3317 20 14.8335M14 14.2361C13.4692 14.7111 12.7684 15 12 15C10.3431 15 9 13.6569 9 12C9 11.1763 9.33193 10.4302 9.86932 9.88808" stroke="black" stroke-width="2" stroke-linecap="round" stroke-linejoin="round"/>
</svg>
