<svg width="24" height="24" viewBox="0 0 24 24" fill="none" xmlns="http://www.w3.org/2000/svg">
<path d="M6.01711 9.75508C6.25524 12.4258 6.25687 15.1124 6.02201 17.7834L6.00294 18.0003C6.00114 18.0207 6.01129 18.0403 6.02898 18.0507C9.71872 20.203 14.2813 20.203 17.971 18.0507C17.9887 18.0403 17.9989 18.0207 17.9971 18.0003L17.978 17.7834C17.7431 15.1124 17.7448 12.4258 17.9829 9.75508M6.01711 9.75508C6.00725 9.64445 6.07908 9.543 6.18671 9.51556L11.506 8.15967C11.8301 8.07704 12.1698 8.07704 12.494 8.15967L17.8133 9.51556C17.9209 9.543 17.9927 9.64445 17.9829 9.75508M6.01711 9.75508C6.01711 9.75508 5.50001 4.53376 3.25941 5.03375C1.0188 5.53374 1.50001 15.0337 6.00001 18.0337M17.9829 9.75508C17.9829 9.75508 18.4553 4.53376 20.6959 5.03375C22.9365 5.53374 22.4553 15.0337 17.9553 18.0337M14 12.0337H10M14 16.0337H10" stroke="black" stroke-width="2" stroke-linecap="round" stroke-linejoin="round"/>
</svg>
