<svg width="24" height="24" viewBox="0 0 24 24" fill="none" xmlns="http://www.w3.org/2000/svg">
<path d="M8.00819 21.221C6.64258 19.2375 5.83922 16.8243 5.83922 14.2187C5.83922 10.8443 8.52542 8.10933 11.8389 8.10933C15.1524 8.10933 17.8386 10.8443 17.8386 14.2187M18.1637 20.3117C18.0557 20.3178 17.9496 20.328 17.8406 20.328C14.5271 20.328 11.8409 17.593 11.8409 14.2187M13.0874 21.9999C10.5382 20.382 8.84046 17.5024 8.84046 14.2187C8.84046 12.5315 10.1841 11.164 11.8408 11.164C13.4975 11.164 14.8411 12.5315 14.8411 14.2187C14.8411 15.9059 16.1847 17.2733 17.8415 17.2733C19.4982 17.2733 20.8418 15.9059 20.8418 14.2187C20.8418 9.15708 16.812 5.05467 11.8418 5.05467C6.87159 5.05467 2.8418 9.15708 2.8418 14.2187C2.8418 15.3469 2.96585 16.4455 3.19395 17.5045M20.217 5.86313C18.1711 3.4978 15.1798 2 11.8403 2C8.5008 2 5.50947 3.4978 3.46356 5.86313" stroke="black" stroke-width="2" stroke-linecap="round" stroke-linejoin="round"/>
</svg>
