<svg width="24" height="24" viewBox="0 0 24 24" fill="none" xmlns="http://www.w3.org/2000/svg">
<path d="M14.8205 5.00003C17.3105 3.78726 19.5 3.20605 19.5 3.20605C19.5 3.20605 22.4079 13.9583 17.4504 17.9011C16.564 18.6061 15.6423 19.0644 14.7349 19.3046M12.2179 20C12.5508 20.7399 13.265 21.3978 14.3605 21.7863C17.6346 22.9472 22 19 22 19C22 19 20.5067 17.6498 18.6119 16.761M5.5 16.7093C3.55239 17.5963 2 19 2 19C2 19 6.36543 22.9472 9.6395 21.7863C10.7247 21.4015 11.4357 20.7523 11.7725 20.0209M9.17939 5C6.68942 3.78725 4.49999 3.20605 4.49999 3.20605C4.49999 3.20605 1.59206 13.9583 6.54955 17.9011C7.43776 18.6076 8.36141 19.0663 9.27062 19.3061M12 2C12 2 4.10555 9.85777 6.42743 15.7511C8.65944 21.4163 15.3405 21.4163 17.5726 15.7511C19.8945 9.85777 12 2 12 2Z" stroke="black" stroke-width="2" stroke-linecap="round" stroke-linejoin="round"/>
</svg>
