<svg width="24" height="24" viewBox="0 0 24 24" fill="none" xmlns="http://www.w3.org/2000/svg">
<path d="M12 4V12M12 12V20M12 12H23M12 12H1M12 12C12 14.9996 7.00001 16.9998 7.00001 16.9998M12 12C12 9.00044 8.99929 6.5004 6.999 7.50029C5.99899 8.00016 5.99899 9.00058 5.99899 9.00058C5.99899 12.0002 10.999 11.9998 10.999 11.9998M16.999 16.9996C16.999 16.9996 11.999 14.9991 11.999 11.9996C11.999 9 14.9997 6.50016 17 7.50005C18 7.99992 18 9.00034 18 9.00034C18 11.9999 13 11.9996 13 11.9996M3 20H21C22.1046 20 23 19.1046 23 18V6C23 4.89543 22.1046 4 21 4H3C1.89543 4 1 4.89543 1 6V18C1 19.1046 1.89543 20 3 20Z" stroke="black" stroke-width="2" stroke-linecap="round" stroke-linejoin="round"/>
</svg>
