<svg width="24" height="24" viewBox="0 0 24 24" fill="none" xmlns="http://www.w3.org/2000/svg">
<path d="M10 17C10 19.2091 8.20914 21 6 21C3.79086 21 2 19.2091 2 17M10 17C10 14.7909 8.20914 13 6 13C3.79086 13 2 14.7909 2 17M10 17C10 17 11.1949 17.5 12 17.5C12.8051 17.5 14 17 14 17M2 17V7.94427C2 7.32329 2.14458 6.71084 2.42229 6.15542L4 3M22 17C22 19.2091 20.2091 21 18 21C15.7909 21 14 19.2091 14 17M22 17C22 14.7909 20.2091 13 18 13C15.7909 13 14 14.7909 14 17M22 17V7.94427C22 7.32329 21.8554 6.71084 21.5777 6.15542L20 3" stroke="black" stroke-width="2" stroke-linecap="round" stroke-linejoin="round"/>
</svg>
