<svg width="24" height="24" viewBox="0 0 24 24" fill="none" xmlns="http://www.w3.org/2000/svg">
<path d="M2 21V17C2 15.8954 2.89543 15 4 15H14C15.1046 15 16 15.8954 16 17V21M16 3C16.8604 3.2203 17.623 3.7207 18.1676 4.42231C18.7122 5.12392 19.0078 5.98683 19.0078 6.875C19.0078 7.76317 18.7122 8.62608 18.1676 9.32769C17.623 10.0293 16.8604 10.5297 16 10.75M19 15H20C21.1046 15 22 15.8954 22 17V21M13 7C13 9.20914 11.2091 11 9 11C6.79086 11 5 9.20914 5 7C5 4.79086 6.79086 3 9 3C11.2091 3 13 4.79086 13 7Z" stroke="black" stroke-width="2" stroke-linecap="round" stroke-linejoin="round"/>
</svg>
