<svg width="24" height="24" viewBox="0 0 24 24" fill="none" xmlns="http://www.w3.org/2000/svg">
<path d="M3 14.75C3 14.3358 3.33579 14 3.75 14H12.25C12.6642 14 13 14.3358 13 14.75V20.25C13 20.6642 12.6642 21 12.25 21H3.75C3.33579 21 3 20.6642 3 20.25V14.75Z" stroke="black" stroke-width="2" stroke-linecap="round" stroke-linejoin="round"/>
<path d="M3 3.75C3 3.33579 3.33579 3 3.75 3H20.25C20.6642 3 21 3.33579 21 3.75V9.25C21 9.66421 20.6642 10 20.25 10H3.75C3.33579 10 3 9.66421 3 9.25V3.75Z" stroke="black" stroke-width="2" stroke-linecap="round" stroke-linejoin="round"/>
</svg>
