<svg width="24" height="24" viewBox="0 0 24 24" fill="none" xmlns="http://www.w3.org/2000/svg">
<path d="M11 14.75C11 14.3358 11.3358 14 11.75 14H20.25C20.6642 14 21 14.3358 21 14.75V20.25C21 20.6642 20.6642 21 20.25 21H11.75C11.3358 21 11 20.6642 11 20.25V14.75Z" stroke="black" stroke-width="2" stroke-linecap="round" stroke-linejoin="round"/>
<path d="M3 3.75C3 3.33579 3.33579 3 3.75 3H20.25C20.6642 3 21 3.33579 21 3.75V9.25C21 9.66421 20.6642 10 20.25 10H3.75C3.33579 10 3 9.66421 3 9.25V3.75Z" stroke="black" stroke-width="2" stroke-linecap="round" stroke-linejoin="round"/>
</svg>
