<svg width="24" height="24" viewBox="0 0 24 24" fill="none" xmlns="http://www.w3.org/2000/svg">
<path d="M3 3.75C3 3.33579 3.33579 3 3.75 3H9.25C9.66421 3 10 3.33579 10 3.75V20.25C10 20.6642 9.66421 21 9.25 21H3.75C3.33579 21 3 20.6642 3 20.25V3.75Z" stroke="black" stroke-width="2" stroke-linecap="round" stroke-linejoin="round"/>
<path d="M14 7.75C14 7.33579 14.3358 7 14.75 7H20.25C20.6642 7 21 7.33579 21 7.75V16.25C21 16.6642 20.6642 17 20.25 17H14.75C14.3358 17 14 16.6642 14 16.25V7.75Z" stroke="black" stroke-width="2" stroke-linecap="round" stroke-linejoin="round"/>
</svg>
