<svg width="24" height="24" viewBox="0 0 24 24" fill="none" xmlns="http://www.w3.org/2000/svg">
<path d="M3 7.1173C3 7.1173 5 8.01764 7.5 7.49992C9.95155 6.99223 11.1025 5.81636 14.5 4.48194C17 3.50001 21 4.99984 21 4.99984M3 12.9689C3 12.9689 5 13.8692 7.5 13.3515C9.95155 12.8438 11.1025 11.6679 14.5 10.3335M3 18.9693C3 18.9693 5 19.8696 7.5 19.3519C9.55125 18.9271 10.692 18.0345 13 16.9727M16 17.1875C16 15.6342 18.5 9.00001 18.5 9.00001C18.5 9.00001 21 15.6342 21 17.1875C21 18.7408 19.8807 20 18.5 20C17.1193 20 16 18.7408 16 17.1875Z" stroke="black" stroke-width="2" stroke-linecap="round" stroke-linejoin="round"/>
</svg>
