<svg width="24" height="24" viewBox="0 0 24 24" fill="none" xmlns="http://www.w3.org/2000/svg">
<path d="M9 16H15M9 19H12M15 12.5C15 12.5 14.1667 11 12 11C9.83333 11 9 12.5 9 12.5M7 22H17C18.1046 22 19 21.1046 19 20V4C19 2.89543 18.1046 2 17 2H7C5.89543 2 5 2.89543 5 4V20C5 21.1046 5.89543 22 7 22ZM13.3334 6.33333C13.3334 7.06971 12.7364 7.66667 12 7.66667C11.2637 7.66667 10.6667 7.06971 10.6667 6.33333C10.6667 5.59695 11.2637 5 12 5C12.7364 5 13.3334 5.59695 13.3334 6.33333Z" stroke="black" stroke-width="2" stroke-linecap="round" stroke-linejoin="round"/>
</svg>
