<svg width="24" height="24" viewBox="0 0 24 24" fill="none" xmlns="http://www.w3.org/2000/svg">
<path d="M20.9135 14H16.118C15.7393 14 15.393 14.214 15.2236 14.5528L14.7764 15.4472C14.607 15.786 14.2607 16 13.882 16H10.118C9.73926 16 9.393 15.786 9.22361 15.4472L8.77639 14.5528C8.607 14.214 8.26074 14 7.88197 14H3.08655M3 16.3804V18C3 19.6569 4.27245 21 5.84211 21H18.1579C19.7275 21 21 19.6569 21 18V16.3804C21 14.7957 20.8972 13.2105 20.6199 11.6502C20.1577 9.04903 19.623 7.01852 18.6258 4.25987C18.3499 3.49664 17.6507 3 16.8768 3H7.12317C6.34927 3 5.65006 3.49664 5.37418 4.25987C4.37699 7.01852 3.84233 9.04903 3.38011 11.6502C3.10284 13.2105 3 14.7957 3 16.3804Z" stroke="black" stroke-width="2" stroke-linecap="round" stroke-linejoin="round"/>
</svg>
