<svg width="24" height="24" viewBox="0 0 24 24" fill="none" xmlns="http://www.w3.org/2000/svg">
<path d="M12 11V17M12 7.01611L12.0161 7M2 8.27208L2 15.7279C2 15.9931 2.10536 16.2475 2.29289 16.435L7.56497 21.7071C7.75251 21.8946 8.00686 22 8.27208 22H15.7279C15.9931 22 16.2475 21.8946 16.435 21.7071L21.7071 16.435C21.8946 16.2475 22 15.9931 22 15.7279V8.27208C22 8.00686 21.8946 7.75251 21.7071 7.56497L16.435 2.29289C16.2475 2.10536 15.9931 2 15.7279 2L8.27208 2C8.00686 2 7.75251 2.10536 7.56497 2.29289L2.29289 7.56497C2.10536 7.75251 2 8.00686 2 8.27208Z" stroke="black" stroke-width="2" stroke-linecap="round" stroke-linejoin="round"/>
</svg>
