<svg width="24" height="24" viewBox="0 0 24 24" fill="none" xmlns="http://www.w3.org/2000/svg">
<path d="M18 6.0217V6M6 22H18C20.2091 22 22 20.2091 22 18V6C22 3.79086 20.2091 2 18 2H6C3.79086 2 2 3.79086 2 6V18C2 20.2091 3.79086 22 6 22ZM16.4444 12C16.4444 14.4546 14.4546 16.4444 12 16.4444C9.5454 16.4444 7.55556 14.4546 7.55556 12C7.55556 9.5454 9.5454 7.55556 12 7.55556C14.4546 7.55556 16.4444 9.5454 16.4444 12Z" stroke="black" stroke-width="2" stroke-linecap="round" stroke-linejoin="round"/>
</svg>
