<svg width="24" height="24" viewBox="0 0 24 24" fill="none" xmlns="http://www.w3.org/2000/svg">
<path d="M13.3229 12.5C12.9703 12.1888 12.5072 12 12 12C10.8954 12 10 12.8954 10 14C10 15.1046 10.8954 16 12 16C12.5072 16 12.9703 15.8112 13.3229 15.5M5 20H19C20.1046 20 21 19.1046 21 18V8C21 6.89543 20.1046 6 19 6H5C3.89543 6 3 6.89543 3 8V18C3 19.1046 3.89543 20 5 20ZM17 14C17 15.1046 16.1046 16 15 16C13.8954 16 13 15.1046 13 14C13 12.8954 13.8954 12 15 12C16.1046 12 17 12.8954 17 14Z" stroke="black" stroke-width="2" stroke-linecap="round" stroke-linejoin="round"/>
</svg>
