<svg width="24" height="24" viewBox="0 0 24 24" fill="none" xmlns="http://www.w3.org/2000/svg">
<path d="M14.86 2H9.14C8.07646 2 7.54469 2 7.13425 2.19709C6.72443 2.39388 6.39388 2.72443 6.19709 3.13425C6 3.54469 6 4.07646 6 5.14V18.86C6 19.9235 6 20.4553 6.19709 20.8657C6.39388 21.2756 6.72443 21.6061 7.13425 21.8029C7.54469 22 8.07646 22 9.14 22H14.86C15.9235 22 16.4553 22 16.8657 21.8029C17.2756 21.6061 17.6061 21.2756 17.8029 20.8657C18 20.4553 18 19.9235 18 18.86V5.14C18 4.07646 18 3.54469 17.8029 3.13425C17.6061 2.72443 17.2756 2.39388 16.8657 2.19709C16.4553 2 15.9235 2 14.86 2Z" stroke="black" stroke-width="2" stroke-linecap="round" stroke-linejoin="round"/>
<path d="M13.5 5H10.5" stroke="black" stroke-width="2" stroke-linecap="round" stroke-linejoin="round"/>
<path d="M2.99999 6L1.73959 7.8906C1.29172 8.5624 1.29172 9.4376 1.73959 10.1094L2.26039 10.8906C2.70825 11.5624 2.70825 12.4376 2.26039 13.1094L1.73959 13.8906C1.29172 14.5624 1.29172 15.4376 1.73959 16.1094L2.99999 18" stroke="black" stroke-width="2" stroke-linecap="round" stroke-linejoin="round"/>
<path d="M21 6L22.2604 7.8906C22.7083 8.5624 22.7083 9.4376 22.2604 10.1094L21.7396 10.8906C21.2917 11.5624 21.2917 12.4376 21.7396 13.1094L22.2604 13.8906C22.7083 14.5624 22.7083 15.4376 22.2604 16.1094L21 18" stroke="black" stroke-width="2" stroke-linecap="round" stroke-linejoin="round"/>
</svg>
