<svg width="24" height="24" viewBox="0 0 24 24" fill="none" xmlns="http://www.w3.org/2000/svg">
<path d="M18 10V5.14C18 4.07646 18 3.54469 17.8029 3.13425C17.6061 2.72443 17.2756 2.39388 16.8657 2.19709C16.4553 2 15.9235 2 14.86 2H9.14C8.07646 2 7.54469 2 7.13425 2.19709C6.72443 2.39388 6.39388 2.72443 6.19709 3.13425C6 3.54469 6 4.07646 6 5.14V18.86C6 19.9235 6 20.4553 6.19709 20.8657C6.39388 21.2756 6.72443 21.6061 7.13425 21.8029C7.54469 22 8.07646 22 9.14 22H11" stroke="black" stroke-width="2" stroke-linecap="round" stroke-linejoin="round"/>
<path d="M13.5 5H10.5" stroke="black" stroke-width="2" stroke-linecap="round" stroke-linejoin="round"/>
<path d="M19.25 16.625V14.875C19.25 13.9085 18.4665 13.125 17.5 13.125C16.5335 13.125 15.75 13.9085 15.75 14.875V16.625M14.875 21H20.125C20.6082 21 21 20.6082 21 20.125V17.5C21 17.0168 20.6082 16.625 20.125 16.625H14.875C14.3918 16.625 14 17.0168 14 17.5V20.125C14 20.6082 14.3918 21 14.875 21Z" stroke="black" stroke-width="2" stroke-linecap="round" stroke-linejoin="round"/>
</svg>
