<svg width="24" height="24" viewBox="0 0 24 24" fill="none" xmlns="http://www.w3.org/2000/svg">
<path d="M20.5 3.5L17.5 6.5M17.5 6.5L14.5 9.5M17.5 6.5L20.5 9.5M17.5 6.5L14.5 3.5M10 6.5C10 8.433 8.433 10 6.5 10C4.567 10 3 8.433 3 6.5C3 4.567 4.567 3 6.5 3C8.433 3 10 4.567 10 6.5ZM15.6667 20.5H19.8333C20.4777 20.5 21 19.9777 21 19.3333V15.1667C21 14.5223 20.4777 14 19.8333 14H15.6667C15.0223 14 14.5 14.5223 14.5 15.1667V19.3333C14.5 19.9777 15.0223 20.5 15.6667 20.5ZM3.5 14V21L10 17.5L3.5 14Z" stroke="black" stroke-width="2" stroke-linecap="round" stroke-linejoin="round"/>
</svg>
