<svg width="24" height="24" viewBox="0 0 24 24" fill="none" xmlns="http://www.w3.org/2000/svg">
<path d="M7 21H19C20.1046 21 21 20.1046 21 19V5C21 3.89543 20.1046 3 19 3H9C7.89543 3 7 3.89543 7 5V21ZM7 21V11H4.5C3.67157 11 3 11.6716 3 12.5V19.5C3 20.3284 3.67157 21 4.5 21H7ZM11 14H17M11 17H14M11.5 11H16.5C16.7761 11 17 10.7761 17 10.5V7.5C17 7.22386 16.7761 7 16.5 7H11.5C11.2239 7 11 7.22386 11 7.5V10.5C11 10.7761 11.2239 11 11.5 11Z" stroke="black" stroke-width="2" stroke-linecap="round" stroke-linejoin="round"/>
</svg>
