<svg width="24" height="24" viewBox="0 0 24 24" fill="none" xmlns="http://www.w3.org/2000/svg">
<path d="M11 20.8889C11.5344 21.4827 12.4656 21.4827 13 20.8889M18.5 11C18.7288 12.7551 19.3461 14.4441 20.3146 15.9409L21 17H3L3.68539 15.9408C4.93512 14.0096 5.6 11.7583 5.6 9.45798V8.4C5.6 5.03364 8.19907 2.27432 11.5 2.01924M20 5C20 6.65685 18.6569 8 17 8C15.3431 8 14 6.65685 14 5C14 3.34315 15.3431 2 17 2C18.6569 2 20 3.34315 20 5Z" stroke="black" stroke-width="2" stroke-linecap="round" stroke-linejoin="round"/>
</svg>
