<svg width="24" height="24" viewBox="0 0 24 24" fill="none" xmlns="http://www.w3.org/2000/svg">
<path d="M13.7992 21.5C14.4341 21.9259 15.2866 21.6901 15.6302 20.9936M3.03813 5.08204C2.53165 6.09622 2.19768 7.21688 2.0645 8.38977C2.02594 8.72938 2.00421 9.07337 2 9.42042M20.5 5.08199C19.7351 3.7531 18.3236 2.50837 17.1244 1.71283M5.79219 11.0657L6.05171 12.0655C6.61598 14.2392 6.55954 16.535 5.88918 18.6763L5.52154 19.8508L22.375 15.4409L21.4878 14.6137C19.87 13.1051 18.709 11.146 18.1448 8.97228L17.8853 7.97253C17.0182 4.63241 13.3171 2.50246 10.0813 3.39743C6.84544 4.29241 4.92515 7.72563 5.79219 11.0657Z" stroke="black" stroke-width="2" stroke-linecap="round" stroke-linejoin="round"/>
</svg>
