<svg width="24" height="24" viewBox="0 0 24 24" fill="none" xmlns="http://www.w3.org/2000/svg">
<path d="M22 16.9999L17.4142 12.4142C16.6332 11.6331 15.3668 11.6331 14.5858 12.4142L9 17.9999M22 3L21.8076 3.19239C19.3696 5.63036 16.063 7 12.6152 7H11.3848C7.93696 7 4.63036 5.63036 2.19239 3.19239L2 3V22L2.19239 21.8076C4.63036 19.3696 7.93696 18 11.3848 18H12.6152C16.063 18 19.3696 19.3696 21.8076 21.8076L22 22V3ZM9 11.5C9 12.3284 8.32843 13 7.5 13C6.67157 13 6 12.3284 6 11.5C6 10.6716 6.67157 10 7.5 10C8.32843 10 9 10.6716 9 11.5Z" stroke="black" stroke-width="2" stroke-linecap="round" stroke-linejoin="round"/>
</svg>
