<svg width="24" height="24" viewBox="0 0 24 24" fill="none" xmlns="http://www.w3.org/2000/svg">
<path d="M6 5C6 4.44772 6.44772 4 7 4H9C9.55228 4 10 4.44772 10 5V19C10 19.5523 9.55228 20 9 20H7C6.44772 20 6 19.5523 6 19V5Z" stroke="black" stroke-width="2" stroke-linecap="round" stroke-linejoin="round"/>
<path d="M14 5C14 4.44772 14.4477 4 15 4H17C17.5523 4 18 4.44772 18 5V19C18 19.5523 17.5523 20 17 20H15C14.4477 20 14 19.5523 14 19V5Z" stroke="black" stroke-width="2" stroke-linecap="round" stroke-linejoin="round"/>
</svg>
