<svg width="24" height="24" viewBox="0 0 24 24" fill="none" xmlns="http://www.w3.org/2000/svg">
<path d="M3 21L8.17073 15.8293M14.8531 3.30607L20.6939 9.14695C21.1781 9.63109 21.0734 10.4423 20.4822 10.7876L17.1051 12.7604C17.0278 12.8056 16.9566 12.8604 16.8933 12.9237L14.9809 14.8362C14.8447 14.9724 14.7488 15.1435 14.7038 15.3308L13.7772 19.1868C13.5865 19.9804 12.6 20.2585 12.0228 19.6813L4.31866 11.9772C3.74147 11.4 4.01957 10.4135 4.81325 10.2228L8.66922 9.29618C8.85647 9.25118 9.02763 9.1553 9.16381 9.01913L11.0763 7.10668C11.1396 7.04338 11.1944 6.97222 11.2396 6.89493L13.2124 3.51782C13.5577 2.92662 14.3689 2.82192 14.8531 3.30607Z" stroke="black" stroke-width="2" stroke-linecap="round" stroke-linejoin="round"/>
</svg>
