<svg width="24" height="24" viewBox="0 0 24 24" fill="none" xmlns="http://www.w3.org/2000/svg">
<path d="M21 19V20C21 20.5523 20.5523 21 20 21H19M21 14V16M14.1 21H14M14 18V15C14 14.4477 14.4477 14 15 14H17.5M17.5 17V18M4 10H9C9.55228 10 10 9.55228 10 9V4C10 3.44772 9.55228 3 9 3H4C3.44772 3 3 3.44772 3 4V9C3 9.55228 3.44772 10 4 10ZM4 21H9C9.55228 21 10 20.5523 10 20V15C10 14.4477 9.55228 14 9 14H4C3.44772 14 3 14.4477 3 15V20C3 20.5523 3.44772 21 4 21ZM15 10H20C20.5523 10 21 9.55228 21 9V4C21 3.44772 20.5523 3 20 3H15C14.4477 3 14 3.44772 14 4V9C14 9.55228 14.4477 10 15 10Z" stroke="black" stroke-opacity="0.94" stroke-width="2" stroke-linecap="round" stroke-linejoin="round"/>
</svg>
