<svg width="24" height="24" viewBox="0 0 24 24" fill="none" xmlns="http://www.w3.org/2000/svg">
<path d="M10 9C10 11.2091 8.20914 13 6 13C3.79086 13 2 11.2091 2 9C2 6.79086 3.79086 5 6 5C8.20914 5 10 6.79086 10 9ZM10 9C10 13.7017 6.80014 17.8 2.23886 18.9403L2 19M22 9C22 11.2091 20.2091 13 18 13C15.7909 13 14 11.2091 14 9C14 6.79086 15.7909 5 18 5C20.2091 5 22 6.79086 22 9ZM22 9C22 13.7017 18.8001 17.8 14.2389 18.9403L14 19" stroke="black" stroke-width="2" stroke-linecap="round" stroke-linejoin="round"/>
</svg>
