<svg width="24" height="24" viewBox="0 0 24 24" fill="none" xmlns="http://www.w3.org/2000/svg">
<path d="M15 3H21C21.5523 3 22 3.44772 22 4V12.5C22 13.0523 21.5523 13.5 21 13.5H18.5C18.2239 13.5 18 13.7239 18 14V15C18 16.1046 18.8954 17 20 17H21C21.5523 17 22 17.4477 22 18V20C22 20.5523 21.5523 21 21 21H20C16.6863 21 14 18.3137 14 15V4C14 3.44772 14.4477 3 15 3Z" stroke="black" stroke-width="2" stroke-linecap="round" stroke-linejoin="round"/>
<path d="M3 3H9C9.55228 3 10 3.44772 10 4V12.5C10 13.0523 9.55228 13.5 9 13.5H6.5C6.22386 13.5 6 13.7239 6 14V15C6 16.1046 6.89543 17 8 17H9C9.55228 17 10 17.4477 10 18V20C10 20.5523 9.55228 21 9 21H8C4.68629 21 2 18.3137 2 15V4C2 3.44772 2.44772 3 3 3Z" stroke="black" stroke-width="2" stroke-linecap="round" stroke-linejoin="round"/>
</svg>
