<svg width="24" height="24" viewBox="0 0 24 24" fill="none" xmlns="http://www.w3.org/2000/svg">
<path d="M14 9C14 11.2091 15.7909 13 18 13C20.2091 13 22 11.2091 22 9C22 6.79086 20.2091 5 18 5C15.7909 5 14 6.79086 14 9ZM14 9C14 13.7017 17.1999 17.8 21.7611 18.9403L22 19M2 9C2 11.2091 3.79086 13 6 13C8.20914 13 10 11.2091 10 9C10 6.79086 8.20914 5 6 5C3.79086 5 2 6.79086 2 9ZM2 9C2 13.7017 5.19986 17.8 9.76114 18.9403L10 19" stroke="black" stroke-width="2" stroke-linecap="round" stroke-linejoin="round"/>
</svg>
