<svg width="24" height="24" viewBox="0 0 24 24" fill="none" xmlns="http://www.w3.org/2000/svg">
<path d="M9 3H3C2.44772 3 2 3.44772 2 4V12.5C2 13.0523 2.44772 13.5 3 13.5H5.5C5.77614 13.5 6 13.7239 6 14V15C6 16.1046 5.10457 17 4 17H3C2.44772 17 2 17.4477 2 18V20C2 20.5523 2.44772 21 3 21H4C7.31371 21 10 18.3137 10 15V4C10 3.44772 9.55228 3 9 3Z" stroke="black" stroke-width="2" stroke-linecap="round" stroke-linejoin="round"/>
<path d="M21 3H15C14.4477 3 14 3.44772 14 4V12.5C14 13.0523 14.4477 13.5 15 13.5H17.5C17.7761 13.5 18 13.7239 18 14V15C18 16.1046 17.1046 17 16 17H15C14.4477 17 14 17.4477 14 18V20C14 20.5523 14.4477 21 15 21H16C19.3137 21 22 18.3137 22 15V4C22 3.44772 21.5523 3 21 3Z" stroke="black" stroke-width="2" stroke-linecap="round" stroke-linejoin="round"/>
</svg>
