<svg width="24" height="24" viewBox="0 0 24 24" fill="none" xmlns="http://www.w3.org/2000/svg">
<path d="M19.5 19.5L21 21M19 12V9.82843C19 9.29799 18.7893 8.78929 18.4142 8.41421L12.5858 2.58579C12.2107 2.21071 11.702 2 11.1716 2H5C3.89543 2 3 2.89543 3 4V20C3 21.1046 3.89543 22 5 22H14M20.25 17.625C20.25 19.0747 19.0747 20.25 17.625 20.25C16.1753 20.25 15 19.0747 15 17.625C15 16.1753 16.1753 15 17.625 15C19.0747 15 20.25 16.1753 20.25 17.625ZM12.5 2.5V8.5H18.5L12.5 2.5Z" stroke="black" stroke-width="2" stroke-linecap="round" stroke-linejoin="round"/>
</svg>
