<svg width="24" height="24" viewBox="0 0 24 24" fill="none" xmlns="http://www.w3.org/2000/svg">
<path d="M12 15.2088C11.3927 15.0752 10.7277 15 10 15C3.5 15 2 21 2 21H13M20.25 19.25L22 21M14 7C14 9.20914 12.2091 11 10 11C7.79086 11 6 9.20914 6 7C6 4.79086 7.79086 3 10 3C12.2091 3 14 4.79086 14 7ZM21.125 17.0625C21.125 18.7538 19.7538 20.125 18.0625 20.125C16.3712 20.125 15 18.7538 15 17.0625C15 15.3712 16.3712 14 18.0625 14C19.7538 14 21.125 15.3712 21.125 17.0625Z" stroke="black" stroke-width="2" stroke-linecap="round" stroke-linejoin="round"/>
</svg>
