<svg width="24" height="24" viewBox="0 0 24 24" fill="none" xmlns="http://www.w3.org/2000/svg">
<path d="M15 4H5.5C4.11929 4 3 5.11929 3 6.5C3 7.88071 4.11929 9 5.5 9H15M17.5 10C15.567 10 14 8.433 14 6.5C14 4.567 15.567 3 17.5 3C19.433 3 21 4.567 21 6.5C21 8.433 19.433 10 17.5 10Z" stroke="black" stroke-width="2" stroke-linecap="round" stroke-linejoin="round"/>
<path d="M9 15H18.5C19.8807 15 21 16.1193 21 17.5C21 18.8807 19.8807 20 18.5 20H9M6.5 21C8.433 21 10 19.433 10 17.5C10 15.567 8.433 14 6.5 14C4.567 14 3 15.567 3 17.5C3 19.433 4.567 21 6.5 21Z" stroke="black" stroke-width="2" stroke-linecap="round" stroke-linejoin="round"/>
</svg>
