<svg width="24" height="24" viewBox="0 0 24 24" fill="none" xmlns="http://www.w3.org/2000/svg">
<path d="M4.08923 6.24364L11.4377 2.26004C12.1113 1.89488 12.935 1.91558 13.5885 2.31409L20.0047 6.22711C20.6239 6.60472 21 7.26692 21 7.97938V16.0206C21 16.7331 20.6239 17.3953 20.0047 17.7729L13.5885 21.6859C12.935 22.0844 12.1113 22.1051 11.4377 21.74L4.08923 17.7564C3.41695 17.3919 3 16.7005 3 15.95V8.04996C3 7.29953 3.41695 6.60808 4.08923 6.24364Z" stroke="black" stroke-width="2" stroke-linecap="round" stroke-linejoin="round"/>
<path d="M15 12.0002C15 13.657 13.6569 15.0002 12 15.0002C10.3431 15.0002 9 13.657 9 12.0002C9 10.3433 10.3431 9.00016 12 9.00016C13.6569 9.00016 15 10.3433 15 12.0002Z" stroke="black" stroke-width="2" stroke-linecap="round" stroke-linejoin="round"/>
</svg>
