<svg width="24" height="24" viewBox="0 0 24 24" fill="none" xmlns="http://www.w3.org/2000/svg">
<path d="M2 14.5003H16C18.5527 14.5003 21.6097 13.3044 21.6097 12.8044M12.6923 8.7823L11 10M14.639 10.3477L13 11.5M2 8.99806V15C2 16.1046 2.89404 17 3.99861 17H16C18.3192 17 19.9166 16.5344 20.8766 16.122C21.6254 15.8003 22 15.0272 22 14.2122C22 12.5323 20.4826 11.2566 18.8029 11.2802C17.8396 11.2937 16.8211 11.2309 16 11C13.8079 10.3835 11 7 11 7C11 7 8.74045 8.85496 7 9C5.9452 9.0879 4.6856 8.5807 3.69455 8.05516C2.96685 7.66927 2 8.17437 2 8.99806Z" stroke="black" stroke-width="2" stroke-linecap="round" stroke-linejoin="round"/>
</svg>
