<svg width="24" height="24" viewBox="0 0 24 24" fill="none" xmlns="http://www.w3.org/2000/svg">
<path d="M12 15.5H11.99M7 22H17C18.1046 22 19 21.1046 19 20V4C19 2.89543 18.1046 2 17 2H7C5.89543 2 5 2.89543 5 4V20C5 21.1046 5.89543 22 7 22ZM14 7.5C14 8.60457 13.1046 9.5 12 9.5C10.8954 9.5 10 8.60457 10 7.5C10 6.39543 10.8954 5.5 12 5.5C13.1046 5.5 14 6.39543 14 7.5ZM15 15.5C15 17.1569 13.6569 18.5 12 18.5C10.3431 18.5 9 17.1569 9 15.5C9 13.8431 10.3431 12.5 12 12.5C13.6569 12.5 15 13.8431 15 15.5Z" stroke="black" stroke-width="2" stroke-linecap="round" stroke-linejoin="round"/>
</svg>
