<svg width="24" height="24" viewBox="0 0 24 24" fill="none" xmlns="http://www.w3.org/2000/svg">
<path d="M19.8 17.8003C21.2058 16.3943 21.9958 14.4876 21.9964 12.4994C21.997 10.5111 21.208 8.60404 19.803 7.19727M17 15.0004C17.3272 14.6733 17.5863 14.2846 17.7623 13.8567C17.9383 13.4288 18.0277 12.9703 18.0254 12.5077C18.023 12.045 17.929 11.5874 17.7487 11.1614C17.5684 10.7353 17.3055 10.3492 16.975 10.0254M9.00003 21V16H10.7604C12.5079 16 13.8856 14.5123 13.7516 12.7699L13.3551 7.61652C13.1548 5.01154 10.9826 3 8.36987 3H6.53513C3.9621 3 1.77421 4.95677 1.81778 7.52944C1.83239 8.39202 1.88437 9.25653 2.00003 10C2.10703 10.6879 2.30843 11.5286 2.5026 12.2615C2.80755 13.4125 2.91264 14.6117 2.74425 15.7904L2.00003 21" stroke="black" stroke-width="2" stroke-linecap="round" stroke-linejoin="round"/>
</svg>
