<svg width="24" height="24" viewBox="0 0 24 24" fill="none" xmlns="http://www.w3.org/2000/svg">
<path d="M2 12C2 17.5228 6.47715 22 12 22C17.5228 22 22 17.5228 22 12M2 12C2 6.47715 6.47715 2 12 2C17.5228 2 22 6.47715 22 12M2 12L4.99997 12M22 12L19 12M4.99997 5L7.5 7.5M16.5 16.5L19 19M16.5 7.5L19 5L13.5 10.5M7.5 16.5L4.99997 19M12 2.10051L12 5M12 19L12 21.8995M12 14C10.8954 14 10 13.1046 10 12C10 10.8954 10.8954 10 12 10C13.1046 10 14 10.8954 14 12C14 13.1046 13.1046 14 12 14Z" stroke="black" stroke-width="2" stroke-linecap="round" stroke-linejoin="round"/>
</svg>
