<svg width="24" height="24" viewBox="0 0 24 24" fill="none" xmlns="http://www.w3.org/2000/svg">
<path d="M9 15C9 13.1296 8.12538 9.94724 8.01205 9.54272C8.00395 9.51381 7.99613 9.4855 7.9884 9.45649L7.54598 7.79741C6.76559 4.87098 8.9713 2 12 2C15.0287 2 17.2344 4.87098 16.454 7.79741L16.0116 9.45649C16.0039 9.4855 15.996 9.51381 15.988 9.54272C15.8746 9.94724 15 13.1296 15 15M20 22H4V19H20V22ZM18 19H6V16C6 15.4477 6.44772 15 7 15H17C17.5523 15 18 15.4477 18 16V19Z" stroke="black" stroke-width="2" stroke-linecap="round" stroke-linejoin="round"/>
</svg>
