<svg width="24" height="24" viewBox="0 0 24 24" fill="none" xmlns="http://www.w3.org/2000/svg">
<path d="M12 2C12 2 12.1769 4.45922 12.5 5.99992C12.8669 7.74941 14 9.5 14 9.5C14 9.5 16.5 9 18 9C19.563 9 22 9.63924 22 9.63924C22 9.63924 19.4407 10.5552 18 11.5C16.7077 12.3474 15 14.0806 15 14.0806C15 14.0806 16.392 16.0775 17 17.5C17.714 19.1706 18.1803 21.9999 18.1803 21.9999C18.1803 21.9999 16.3988 19.7059 15 18.5C13.9121 17.5622 12 16.3724 12 16.3724C12 16.3724 9.7541 17.8388 8.5 19C7.34724 20.0674 5.81966 21.9999 5.81966 21.9999C5.81966 21.9999 6.0555 19.8195 6.5 18.5C7.13301 16.6209 9 14.0806 9 14.0806C9 14.0806 6.94008 12.4 5.5 11.5C4.18729 10.6796 2 9.63924 2 9.63924C2 9.63924 4.44365 9.35553 6 9.5C7.5 9.63924 10.1459 10.3724 10.1459 10.3724C10.1459 10.3724 10.1234 7.67115 10.5 5.99992C10.8668 4.37244 12 2 12 2Z" stroke="black" stroke-width="2" stroke-linecap="round" stroke-linejoin="round"/>
</svg>
