<svg width="24" height="24" viewBox="0 0 24 24" fill="none" xmlns="http://www.w3.org/2000/svg">
<path d="M17.9795 11.5C17.9048 10.5948 17.6292 9.74655 17.1973 9C16.1599 7.2066 14.2208 6 12 6C8.68629 6 6 8.68629 6 12C6 12.7013 6.12031 13.3744 6.34141 14M10 15.5C9 14.5 7.26319 14 6 14C3.79086 14 2 15.7909 2 18C2 20.2091 3.79086 22 6 22H15.5C18.5376 22 21 19.5376 21 16.5C21 13.4624 18.5376 11 15.5 11C12.9825 11 10.86 12.6915 10.207 15C10.1607 15.1637 10.1218 15.3305 10.0907 15.5M21 12H22M5.79294 5.79289L5.00005 5M18.2072 5.79289L19 5M2.00005 12H3.00005M12 2V3" stroke="black" stroke-width="2" stroke-linecap="round" stroke-linejoin="round"/>
</svg>
