<svg width="24" height="24" viewBox="0 0 24 24" fill="none" xmlns="http://www.w3.org/2000/svg">
<path d="M13 2.04938C12.6711 2.01672 12.3375 2 12 2C6.47715 2 2 6.47715 2 12C2 17.5228 6.47715 22 12 22C17.5228 22 22 17.5228 22 12C22 11.6625 21.9833 11.3289 21.9506 11M16 8V5L19 2L20.125 3.875L22 5L19 8H16ZM16 8L12 12M12 14C10.8954 14 10 13.1046 10 12C10 10.8954 10.8954 10 12 10C13.1046 10 14 10.8954 14 12C14 13.1046 13.1046 14 12 14Z" stroke="#080808" stroke-width="2" stroke-linecap="round" stroke-linejoin="round"/>
</svg>
