<svg width="24" height="24" viewBox="0 0 24 24" fill="none" xmlns="http://www.w3.org/2000/svg">
<path d="M16 6V3C16 2.44772 15.5523 2 15 2H3C2.44772 2 2 2.44772 2 3V11C2 14.6979 4.86736 17.726 8.5 17.9824M12.0161 11.0161L12 11M18.0161 11.0161L18 11M17.2361 17C16.6868 17.6137 15.8885 18 15 18C14.069 18 13.237 17.5759 12.6867 16.9103M15 22C11.134 22 8 18.866 8 15V7C8 6.44772 8.44772 6 9 6H21C21.5523 6 22 6.44772 22 7V15C22 18.866 18.866 22 15 22Z" stroke="black" stroke-width="2" stroke-linecap="round" stroke-linejoin="round"/>
</svg>
