<svg width="24" height="24" viewBox="0 0 24 24" fill="none" xmlns="http://www.w3.org/2000/svg">
<path d="M13 9.5V16C13 19 12 21 12 21H2C2 21 3 19 3 16V9.5C3 5.91015 4.79086 3 7 3H17M13 9.5C13 13.0899 14.7909 16 17 16C19.2091 16 21 13.0899 21 9.5C21 5.91015 19.2091 3 17 3M13 9.5C13 5.91015 14.7909 3 17 3M17.5931 9.47323C17.5931 10.5778 17.3692 11.4732 17.0931 11.4732C16.8169 11.4732 16.5931 10.5778 16.5931 9.47323C16.5931 8.36866 16.8169 7.47323 17.0931 7.47323C17.3692 7.47323 17.5931 8.36866 17.5931 9.47323Z" stroke="black" stroke-width="2" stroke-linecap="round" stroke-linejoin="round"/>
</svg>
