<svg width="24" height="24" viewBox="0 0 24 24" fill="none" xmlns="http://www.w3.org/2000/svg">
<path d="M13.5106 13.9623C15.7334 14.8061 18.3797 14.3029 20.2121 12.4705C22.1578 10.5248 22.4602 7.51682 21.3874 5.21718L17.046 9.55861L14.4412 6.95375L18.7826 2.61233C16.4829 1.53957 13.4749 1.84198 11.5293 3.78762C9.6969 5.62002 9.19366 8.26635 10.0374 10.4892M9.99062 10.536L2.71932 17.8073C1.76024 18.7664 1.76024 20.3214 2.71932 21.2804C3.6784 22.2395 5.23337 22.2395 6.19245 21.2804L13.4638 14.0091M12.5 15.5L18.5448 21.4553C19.3609 22.2713 20.6839 22.2713 21.5 21.4553C22.3161 20.6392 22.3161 19.3161 21.5 18.5001L17.5 14.5M2 1.99998L9.5 9.49998" stroke="#080808" stroke-width="2" stroke-linecap="round" stroke-linejoin="round"/>
</svg>
