<svg width="24" height="24" viewBox="0 0 24 24" fill="none" xmlns="http://www.w3.org/2000/svg">
<path d="M10 5C5.58172 5 2 8.73096 2 13.3333C2 13.3333 5.2 15 10 15C14.8 15 18 13.3333 18 13.3333C18 8.73096 14.4183 5 10 5ZM10 5V9.46154M17.7826 11.3957C17.7826 11.3957 21.8959 10.7435 22 9.00016C22.0679 7.86362 21.5441 6.95414 20.5 6.50016C18.9596 5.83042 16.5 9 16.5 9L13 11M4 7.81506V9.46154L7 11M7 11L10 9.46154M7 11V14.7817M10 9.46154L13 11M13 11V14.7817M5 14.5L4.01601 16.222C3.52333 17.0842 4.04046 18.1734 5.01998 18.3367C5.60893 18.4348 6.1967 18.1558 6.49294 17.6374L8 15L5 14.5ZM13.5071 17.6374L12 15L15 14.5L15.984 16.222C16.4767 17.0842 15.9595 18.1734 14.98 18.3367C14.3911 18.4348 13.8033 18.1558 13.5071 17.6374Z" stroke="black" stroke-width="2" stroke-linecap="round" stroke-linejoin="round"/>
</svg>
