<svg width="24" height="24" viewBox="0 0 24 24" fill="none" xmlns="http://www.w3.org/2000/svg">
<path d="M9 18H15M9 18C9 19.1046 8.10457 20 7 20C5.89543 20 5 19.1046 5 18M9 18C9 16.8954 8.10457 16 7 16C5.89543 16 5 16.8954 5 18M15 18C15 19.1046 15.8954 20 17 20C18.1046 20 19 19.1046 19 18M15 18C15 16.8954 15.8954 16 17 16C18.1046 16 19 16.8954 19 18M5 18H3C2.44772 18 2 17.5523 2 17V5C2 4.44772 2.44772 4 3 4H15C15.5523 4 16 4.44772 16 5V16.2676M19 18H22V12.51C22 12.1754 21.916 11.8461 21.7558 11.5523L19 6.5H16M21.9339 12H16" stroke="black" stroke-width="2" stroke-linecap="round" stroke-linejoin="round"/>
</svg>
