<svg width="24" height="24" viewBox="0 0 24 24" fill="none" xmlns="http://www.w3.org/2000/svg">
<path d="M11.9999 3C17.1853 3 21.4982 6.94668 21.9999 12C21.3942 11.8436 20.6267 11.8417 19.9013 11.9104C17.9748 12.0926 16.2614 13.329 15.9999 14.5M11.9999 3C6.81459 3 2.55104 6.94668 2.04932 12M11.9999 3C14.3776 5.62038 15.9999 10.6357 15.9999 14.5M11.9999 3C9.62235 5.62037 7.99994 10.6357 7.99994 14.5M11.9999 3L11.9999 2M15.9999 14.5C15.4508 13.3348 13.7416 12 11.9999 12M2.08044 12C2.68621 11.8436 3.45373 11.8417 4.17906 11.9104C6.10563 12.0926 7.73845 13.329 7.99994 14.5M7.99994 14.5C8.54905 13.3348 10.2583 12 11.9999 12M11.9999 12L11.9999 19.5C11.9999 20.8807 10.8807 22 9.49994 22C8.11923 22 6.99994 20.8807 6.99994 19.5V19" stroke="black" stroke-width="2" stroke-linecap="round" stroke-linejoin="round"/>
</svg>
