<svg width="24" height="24" viewBox="0 0 24 24" fill="none" xmlns="http://www.w3.org/2000/svg">
<path d="M16 12C16 14.2091 14.2091 16 12 16M16 12C16 9.79086 14.2091 8 12 8M16 12L21 12M12 16C9.79086 16 8 14.2091 8 12M12 16V21M8 12C8 9.79086 9.79086 8 12 8M8 12L3 12M12 8V3M18.364 5.63604L14.8284 9.17157M9.17157 14.8284L5.63604 18.364M5.63599 5.63609L9.17152 9.17163M14.8284 14.8285L18.3639 18.364M13.9585 2.19171C13.3252 2.06595 12.6703 2 12 2C11.3286 2 10.6727 2.06616 10.0385 2.19231M2.1884 10.0582C2.06479 10.6864 2 11.3356 2 12C2 12.6743 2.06673 13.333 2.19396 13.9698M3.67862 6.45241C4.41062 5.35659 5.35332 4.41349 6.4488 3.68103M10.055 21.811C10.6841 21.935 11.3345 22 12 22C12.6641 22 13.313 21.9353 13.9409 21.8118M6.43296 20.3084C5.34902 19.5806 4.41534 18.6464 3.68826 17.562M17.5525 3.6819C18.6471 4.41404 19.5892 5.35651 20.3208 6.4515M21.8166 10.0836C21.9369 10.7038 22 11.3446 22 12C22 12.6687 21.9344 13.3221 21.8092 13.9541M20.3178 17.553C19.5829 18.6516 18.636 19.5965 17.5358 20.3292" stroke="black" stroke-width="2" stroke-linecap="round" stroke-linejoin="round"/>
</svg>
