<svg width="24" height="24" viewBox="0 0 24 24" fill="none" xmlns="http://www.w3.org/2000/svg">
<path d="M20 9.71429V6.28571C20 5.02335 19.1046 4 18 4H4C2.89543 4 2 5.02335 2 6.28571V17.7143C2 18.9767 2.89543 20 4 20H18C19.1046 20 20 18.9767 20 17.7143V14.2857M16 14.2857H21C21.5523 14.2857 22 13.838 22 13.2857V10.7143C22 10.162 21.5523 9.71429 21 9.71429H16C14.8954 9.71429 14 10.7376 14 12C14 13.2624 14.8954 14.2857 16 14.2857Z" stroke="black" stroke-width="2" stroke-linecap="round" stroke-linejoin="round"/>
</svg>
