<svg width="24" height="24" viewBox="0 0 24 24" fill="none" xmlns="http://www.w3.org/2000/svg">
<path d="M2 6C4.88494 4.10123 8.31702 3 12 3C15.683 3 19.1151 4.10123 22 6M4.99996 9.8774C7.05917 8.6054 9.44995 7.87744 12 7.87744C13.39 7.87744 14.7326 8.09373 16 8.49651M9.07354 13.4549C10.0119 13.0016 11.0216 12.7549 12.0735 12.7549M19 16V14C19 12.8954 18.1046 12 17 12C15.8954 12 15 12.8954 15 14V16M14 21H20C20.5523 21 21 20.5523 21 20V17C21 16.4477 20.5523 16 20 16H14C13.4477 16 13 16.4477 13 17V20C13 20.5523 13.4477 21 14 21Z" stroke="black" stroke-width="2" stroke-linecap="round" stroke-linejoin="round"/>
</svg>
