<svg width="24" height="24" viewBox="0 0 24 24" fill="none" xmlns="http://www.w3.org/2000/svg">
<path d="M22 7.92647C19.1151 6.07423 15.683 5 12 5C11.6645 5 11.3311 5.00891 11 5.02652M2 7.92647C3.24008 7.13029 4.58126 6.47786 6 5.99271M16.0886 10.5C17.0522 10.802 17.9699 11.2078 18.8284 11.7045M5.17159 11.7045C6.63169 10.8599 8.26267 10.2778 9.99999 10.0229M9.07354 15.2544C9.98888 14.9309 10.9739 14.7549 12 14.7549C13.0261 14.7549 14.0111 14.9309 14.9265 15.2544M11.9181 19.1464L11.902 19.1303M2 2L22 22" stroke="black" stroke-width="2" stroke-linecap="round" stroke-linejoin="round"/>
</svg>
